<svg width="156" height="90" viewBox="0 0 156 90" fill="none" xmlns="http://www.w3.org/2000/svg">
<path d="M23.9256 74.9864L11.1919 44.3301L23.9256 14.8387L23.9256 74.9864Z" stroke="white" stroke-width="2" stroke-linejoin="round"/>
<path d="M43.3396 12.0872L10.2749 44.4547L43.3392 77.3504C43.3738 77.3847 43.4326 77.3603 43.4326 77.3116L43.4326 44.7197L43.4326 12.1263C43.4326 12.0778 43.3742 12.0532 43.3396 12.0872Z" stroke="white" stroke-width="2"/>
<path d="M66.9288 12.3105L10.5073 44.5898L66.9285 77.398C66.965 77.4193 67.0107 77.3929 67.0107 77.3507L67.0107 12.358C67.0107 12.316 66.9653 12.2897 66.9288 12.3105Z" stroke="white" stroke-width="2"/>
<path d="M10 13.2168L10 76.7864" stroke="white" stroke-width="2" stroke-linecap="round"/>
<path d="M88.8269 45.6027C89.7181 45.6027 89.9854 45.7364 90.3864 46.2265C91.4112 47.5187 97.2483 56.5193 97.6047 57.054C98.0057 57.6778 97.2483 58.3016 96.268 58.3016H95.5996C95.3323 58.3016 95.2432 58.4352 95.1986 58.7471L95.1095 59.4601C95.065 59.8165 95.1986 59.9502 95.5105 59.9502C96.0452 59.9502 98.4959 59.8165 101.125 59.8165C103.932 59.8165 105.135 59.9502 105.67 59.9502C106.071 59.9502 106.16 59.8611 106.249 59.5046L106.427 58.7471C106.472 58.5243 106.338 58.3016 106.026 58.3016H104.734C103.754 58.3016 102.328 57.2322 101.526 56.2965C100.456 55.0043 93.9065 45.5136 93.5946 44.8898C94.2184 44.1768 105.179 34.3742 107.006 32.9484C108.031 32.1463 109.19 31.478 110.526 31.478H111.908C112.22 31.478 112.264 31.2997 112.353 31.0324L112.531 30.2304C112.576 30.0076 112.442 29.8293 112.041 29.8293C111.64 29.8293 110.393 29.963 107.719 29.963C105.135 29.963 103.264 29.8293 102.818 29.8293C102.551 29.8293 102.417 29.9185 102.328 30.1858L102.15 30.9878C102.105 31.2106 102.194 31.4334 102.506 31.4334H103.041C104.244 31.4334 104.422 32.1463 103.798 32.9484C102.06 35.1317 96.8918 39.5874 92.9262 43.1075C91.7231 44.2214 91.1439 44.3551 89.2279 44.3551L92.5697 33.8395C93.1044 32.1909 93.951 31.478 95.466 31.478H96.5353C96.8918 31.478 97.0255 31.4334 97.07 31.1215L97.2037 30.2749C97.2483 30.0076 97.2037 29.8293 96.9364 29.8293C96.4017 29.8293 95.065 29.963 91.5004 29.963C88.515 29.963 86.9109 29.8293 86.5099 29.8293C86.198 29.8293 86.0643 29.8739 85.9752 30.0967L85.6633 31.0324C85.5742 31.2997 85.7079 31.478 86.0643 31.478H87.1783C88.8715 31.478 89.2725 32.3691 88.6487 34.3297L81.7868 55.6281C81.2076 57.455 80.0936 58.3016 78.9352 58.3016H77.6875C77.3311 58.3016 77.242 58.4352 77.1974 58.658L77.0192 59.4601C76.9746 59.7274 77.1083 59.9502 77.3756 59.9502C77.6875 59.9502 79.0243 59.8165 82.3661 59.8165C85.396 59.8165 87.3565 59.9502 87.8466 59.9502C88.2477 59.9502 88.3813 59.8165 88.4259 59.5937L88.6041 58.7471C88.6487 58.4352 88.515 58.3016 88.2922 58.3016H87.1783C85.7524 58.3016 85.0395 57.3213 85.6633 55.3608L88.8269 45.6027Z" fill="white"/>
<path d="M106.393 60.2621C110.091 60.2621 113.656 55.9846 113.923 55.6281C114.057 55.4053 114.012 55.3162 113.834 55.0934L113.478 54.7815C113.255 54.5587 113.077 54.5587 112.988 54.6924C112.765 55.0934 110.359 57.6332 109.423 57.8114C109.067 57.7223 108.933 57.455 108.933 57.054C108.933 56.7421 109.111 55.7618 109.735 54.1132L112.319 47.3404C113.121 45.2017 113.834 43.1966 113.834 42.3945C113.834 41.6371 113.3 41.2806 112.765 41.2806C109.913 41.1469 105.368 46.4938 105.19 46.7612C105.056 46.9394 105.145 47.0285 105.324 47.1622L105.68 47.5632C105.814 47.6969 105.992 47.6969 106.17 47.5187C106.883 46.8057 108.977 44.3996 109.735 44.3996C110.091 44.3996 110.359 44.5779 110.359 44.9789C110.359 45.5136 110.002 46.4047 109.557 47.6078L108.265 51.0833C106.393 56.0737 105.636 58.1233 105.636 59.1482C105.636 59.8611 105.948 60.2175 106.393 60.2621Z" fill="white"/>
<path d="M130.905 31.2552C132.108 31.2552 132.33 32.1463 132.018 32.9929L128.588 42.751C127.83 41.8599 126.983 41.2806 125.78 41.2806C122.795 41.2806 120.211 43.5085 118.785 44.8898C115.131 48.4989 112.636 53.8013 112.636 57.3213C112.636 59.2373 113.973 60.2621 115.488 60.2621C118.518 60.2621 122.706 56.1628 124.889 52.6873L125.246 52.7764C124.265 55.3162 123.285 58.3461 123.285 59.2373C123.285 60.0393 123.775 60.2621 124.488 60.2621C126.85 60.2621 130.682 56.6975 130.994 56.2965C131.127 56.1182 131.127 55.94 130.994 55.8509L130.548 55.4053C130.414 55.2271 130.236 55.2271 130.058 55.3608C129.835 55.6281 127.696 57.6778 126.939 57.6778C126.315 57.6778 126.36 57.0094 126.761 55.6281C127.518 52.9547 135.316 32.1018 135.984 30.5423C136.162 30.1858 136.073 29.7402 135.449 29.7402H129.969C129.568 29.7402 129.479 29.8293 129.434 30.0076L129.167 30.9433C129.122 31.077 129.167 31.2552 129.523 31.2552H130.905ZM117.181 57.9897C116.557 57.9897 115.889 57.4995 115.889 56.5638C115.889 52.4645 120.612 42.7065 124.8 42.7065C126.226 42.7065 127.162 43.553 127.162 45.6472C127.162 47.385 125.513 50.1921 124.265 51.8853C122.483 54.3359 119.052 57.9897 117.181 57.9897Z" fill="white"/>
<path d="M134.669 60.2621C141.129 60.2621 145.006 51.3952 145.006 46.4938C145.006 43.4639 143.224 41.2806 140.238 41.2806C134.312 41.2806 130.079 48.8999 130.079 54.5142C130.079 57.9005 132.218 60.2621 134.669 60.2621ZM134 58.1233C132.931 58.1233 131.951 57.2767 131.951 55.8509C131.951 53.7567 133.02 51.0387 134.535 48.6326C136.763 45.0234 139.124 43.3303 140.996 43.3303C142.466 43.3303 143.268 44.4442 143.224 45.8255C143.224 48.7663 138.634 58.1233 134 58.1233Z" fill="white"/>
</svg>
